<mxfile host="app.diagrams.net" modified="2023-06-06T07:02:02.337Z" agent="Mozilla/5.0 (Windows NT 10.0; Win64; x64) AppleWebKit/537.36 (KHTML, like Gecko) Chrome/114.0.0.0 Safari/537.36" etag="HXmEKvgxlaDQRBqTSkig" version="21.3.7" type="github">
  <diagram name="Page-1" id="7qcdaun962KcgYTjxXYZ">
    <mxGraphModel dx="1423" dy="606" grid="1" gridSize="10" guides="1" tooltips="1" connect="1" arrows="1" fold="1" page="1" pageScale="1" pageWidth="827" pageHeight="1169" math="0" shadow="0">
      <root>
        <mxCell id="0" />
        <mxCell id="1" parent="0" />
        <mxCell id="sA9GvNZ6Bi4b2Zfw29Hr-1" value="AWS Account" style="points=[[0,0],[0.25,0],[0.5,0],[0.75,0],[1,0],[1,0.25],[1,0.5],[1,0.75],[1,1],[0.75,1],[0.5,1],[0.25,1],[0,1],[0,0.75],[0,0.5],[0,0.25]];outlineConnect=0;gradientColor=none;html=1;whiteSpace=wrap;fontSize=12;fontStyle=0;container=1;pointerEvents=0;collapsible=0;recursiveResize=0;shape=mxgraph.aws4.group;grIcon=mxgraph.aws4.group_account;strokeColor=#CD2264;fillColor=none;verticalAlign=top;align=left;spacingLeft=30;fontColor=#CD2264;dashed=0;" vertex="1" parent="1">
          <mxGeometry x="571" y="41.5" width="670" height="270" as="geometry" />
        </mxCell>
        <mxCell id="sA9GvNZ6Bi4b2Zfw29Hr-4" value="VPC" style="points=[[0,0],[0.25,0],[0.5,0],[0.75,0],[1,0],[1,0.25],[1,0.5],[1,0.75],[1,1],[0.75,1],[0.5,1],[0.25,1],[0,1],[0,0.75],[0,0.5],[0,0.25]];outlineConnect=0;gradientColor=none;html=1;whiteSpace=wrap;fontSize=12;fontStyle=0;container=1;pointerEvents=0;collapsible=0;recursiveResize=0;shape=mxgraph.aws4.group;grIcon=mxgraph.aws4.group_vpc;strokeColor=#248814;fillColor=none;verticalAlign=top;align=left;spacingLeft=30;fontColor=#AAB7B8;dashed=0;" vertex="1" parent="sA9GvNZ6Bi4b2Zfw29Hr-1">
          <mxGeometry x="160" y="32.75" width="510" height="204.5" as="geometry" />
        </mxCell>
        <mxCell id="sA9GvNZ6Bi4b2Zfw29Hr-33" value="" style="whiteSpace=wrap;html=1;aspect=fixed;" vertex="1" parent="sA9GvNZ6Bi4b2Zfw29Hr-4">
          <mxGeometry x="352.01" y="29.75" width="114" height="114" as="geometry" />
        </mxCell>
        <mxCell id="sA9GvNZ6Bi4b2Zfw29Hr-8" style="edgeStyle=orthogonalEdgeStyle;rounded=0;orthogonalLoop=1;jettySize=auto;html=1;entryX=0;entryY=0.5;entryDx=0;entryDy=0;entryPerimeter=0;" edge="1" parent="sA9GvNZ6Bi4b2Zfw29Hr-4" source="sA9GvNZ6Bi4b2Zfw29Hr-5" target="sA9GvNZ6Bi4b2Zfw29Hr-7">
          <mxGeometry relative="1" as="geometry" />
        </mxCell>
        <mxCell id="sA9GvNZ6Bi4b2Zfw29Hr-5" value="" style="outlineConnect=0;dashed=0;verticalLabelPosition=bottom;verticalAlign=top;align=center;html=1;shape=mxgraph.aws3.codebuild;fillColor=#759C3E;gradientColor=none;" vertex="1" parent="sA9GvNZ6Bi4b2Zfw29Hr-4">
          <mxGeometry x="30" y="54.5" width="60" height="64.5" as="geometry" />
        </mxCell>
        <mxCell id="sA9GvNZ6Bi4b2Zfw29Hr-34" style="edgeStyle=orthogonalEdgeStyle;rounded=0;orthogonalLoop=1;jettySize=auto;html=1;" edge="1" parent="sA9GvNZ6Bi4b2Zfw29Hr-4" source="sA9GvNZ6Bi4b2Zfw29Hr-7">
          <mxGeometry relative="1" as="geometry">
            <mxPoint x="350" y="87.25" as="targetPoint" />
          </mxGeometry>
        </mxCell>
        <mxCell id="sA9GvNZ6Bi4b2Zfw29Hr-7" value="" style="outlineConnect=0;dashed=0;verticalLabelPosition=bottom;verticalAlign=top;align=center;html=1;shape=mxgraph.aws3.stack_aws_cloudformation;fillColor=#759C3E;gradientColor=none;" vertex="1" parent="sA9GvNZ6Bi4b2Zfw29Hr-4">
          <mxGeometry x="180" y="57.5" width="73.5" height="58.5" as="geometry" />
        </mxCell>
        <mxCell id="sA9GvNZ6Bi4b2Zfw29Hr-2" value="" style="outlineConnect=0;dashed=0;verticalLabelPosition=bottom;verticalAlign=top;align=center;html=1;shape=mxgraph.aws3.lambda_function;fillColor=#F58534;gradientColor=none;" vertex="1" parent="sA9GvNZ6Bi4b2Zfw29Hr-4">
          <mxGeometry x="387.63" y="39.88" width="40" height="41" as="geometry" />
        </mxCell>
        <mxCell id="sA9GvNZ6Bi4b2Zfw29Hr-10" value="Code Build" style="text;html=1;align=center;verticalAlign=middle;resizable=0;points=[];autosize=1;strokeColor=none;fillColor=none;" vertex="1" parent="sA9GvNZ6Bi4b2Zfw29Hr-4">
          <mxGeometry x="10" y="106" width="80" height="30" as="geometry" />
        </mxCell>
        <mxCell id="sA9GvNZ6Bi4b2Zfw29Hr-11" value="Cloud Formation" style="text;html=1;align=center;verticalAlign=middle;resizable=0;points=[];autosize=1;strokeColor=none;fillColor=none;" vertex="1" parent="sA9GvNZ6Bi4b2Zfw29Hr-4">
          <mxGeometry x="161.75" y="116" width="110" height="30" as="geometry" />
        </mxCell>
        <mxCell id="sA9GvNZ6Bi4b2Zfw29Hr-32" value="" style="sketch=0;points=[[0,0,0],[0.25,0,0],[0.5,0,0],[0.75,0,0],[1,0,0],[0,1,0],[0.25,1,0],[0.5,1,0],[0.75,1,0],[1,1,0],[0,0.25,0],[0,0.5,0],[0,0.75,0],[1,0.25,0],[1,0.5,0],[1,0.75,0]];outlineConnect=0;fontColor=#232F3E;gradientColor=#FF4F8B;gradientDirection=north;fillColor=#BC1356;strokeColor=#ffffff;dashed=0;verticalLabelPosition=bottom;verticalAlign=top;align=center;html=1;fontSize=12;fontStyle=0;aspect=fixed;shape=mxgraph.aws4.resourceIcon;resIcon=mxgraph.aws4.step_functions;" vertex="1" parent="sA9GvNZ6Bi4b2Zfw29Hr-4">
          <mxGeometry x="386.26" y="93.25" width="42.75" height="42.75" as="geometry" />
        </mxCell>
        <mxCell id="sA9GvNZ6Bi4b2Zfw29Hr-23" value="Deploy Code Build" style="text;html=1;align=center;verticalAlign=middle;resizable=0;points=[];autosize=1;strokeColor=none;fillColor=none;" vertex="1" parent="sA9GvNZ6Bi4b2Zfw29Hr-1">
          <mxGeometry y="93" width="120" height="30" as="geometry" />
        </mxCell>
        <mxCell id="sA9GvNZ6Bi4b2Zfw29Hr-22" value="" style="edgeStyle=orthogonalEdgeStyle;rounded=0;orthogonalLoop=1;jettySize=auto;html=1;entryX=0;entryY=0.5;entryDx=0;entryDy=0;entryPerimeter=0;" edge="1" parent="1" source="sA9GvNZ6Bi4b2Zfw29Hr-14" target="sA9GvNZ6Bi4b2Zfw29Hr-5">
          <mxGeometry relative="1" as="geometry">
            <mxPoint x="510" y="162" as="targetPoint" />
          </mxGeometry>
        </mxCell>
        <mxCell id="sA9GvNZ6Bi4b2Zfw29Hr-14" value="" style="outlineConnect=0;dashed=0;verticalLabelPosition=bottom;verticalAlign=top;align=center;html=1;shape=mxgraph.aws3.stack_aws_cloudformation;fillColor=#759C3E;gradientColor=none;" vertex="1" parent="1">
          <mxGeometry x="377" y="133" width="73.5" height="58.5" as="geometry" />
        </mxCell>
        <mxCell id="sA9GvNZ6Bi4b2Zfw29Hr-15" value="Cloud Formation" style="text;html=1;align=center;verticalAlign=middle;resizable=0;points=[];autosize=1;strokeColor=none;fillColor=none;" vertex="1" parent="1">
          <mxGeometry x="358.75" y="187.25" width="110" height="30" as="geometry" />
        </mxCell>
        <mxCell id="sA9GvNZ6Bi4b2Zfw29Hr-18" style="edgeStyle=orthogonalEdgeStyle;rounded=0;orthogonalLoop=1;jettySize=auto;html=1;entryX=0;entryY=0.5;entryDx=0;entryDy=0;entryPerimeter=0;" edge="1" parent="1" source="sA9GvNZ6Bi4b2Zfw29Hr-16" target="sA9GvNZ6Bi4b2Zfw29Hr-14">
          <mxGeometry relative="1" as="geometry" />
        </mxCell>
        <mxCell id="sA9GvNZ6Bi4b2Zfw29Hr-16" value="" style="sketch=0;outlineConnect=0;fontColor=#232F3E;gradientColor=none;fillColor=#232F3D;strokeColor=none;dashed=0;verticalLabelPosition=bottom;verticalAlign=top;align=center;html=1;fontSize=12;fontStyle=0;aspect=fixed;pointerEvents=1;shape=mxgraph.aws4.user;" vertex="1" parent="1">
          <mxGeometry x="10" y="137.25" width="50" height="50" as="geometry" />
        </mxCell>
        <mxCell id="sA9GvNZ6Bi4b2Zfw29Hr-20" value="User" style="text;html=1;align=center;verticalAlign=middle;resizable=0;points=[];autosize=1;strokeColor=none;fillColor=none;" vertex="1" parent="1">
          <mxGeometry x="10" y="187.25" width="50" height="30" as="geometry" />
        </mxCell>
        <mxCell id="sA9GvNZ6Bi4b2Zfw29Hr-21" value="Developer Role Access to Deploy Stack" style="text;html=1;align=center;verticalAlign=middle;resizable=0;points=[];autosize=1;strokeColor=none;fillColor=none;" vertex="1" parent="1">
          <mxGeometry x="110" y="133" width="230" height="30" as="geometry" />
        </mxCell>
        <mxCell id="sA9GvNZ6Bi4b2Zfw29Hr-35" value="deploy.sh" style="text;html=1;align=center;verticalAlign=middle;resizable=0;points=[];autosize=1;strokeColor=none;fillColor=none;" vertex="1" parent="1">
          <mxGeometry x="170" y="161.5" width="70" height="30" as="geometry" />
        </mxCell>
      </root>
    </mxGraphModel>
  </diagram>
</mxfile>
